<svg xmlns="http://www.w3.org/2000/svg" width="215.6" height="39.6" viewBox="0 0 215.6 39.6"><path fill="#D74022" d="M36.3 4.5c-8.8.3-15.9 7.4-16.2 16.2-.1 4.8 1.8 9.2 4.9 12.3L48.7 9.4c-3.1-3.2-7.5-5.1-12.4-4.9zM31.8 33c3.1 3.1 7.5 5 12.4 4.9 8.8-.3 15.9-7.4 16.2-16.2.2-4.8-1.7-9.2-4.9-12.4L31.8 33z"/><path fill="#4D4D4F" d="M62 39.6l-3.3-3.4 15-15-15-15L62 2.9l18.3 18.3M18.3 39.6L0 21.2 18.3 2.9l3.4 3.3-15.1 15 15.1 15"/><path fill="#95D600" d="M33.5 2.8V1.6c0-.4.2-.8.1-1.2-.2-.7-1.1-.7-1.4-.1-.5 1.2-.6 2.4-.6 3.6-1.7.8-4.4.5-6.2-.1 1.3 1 2.9 1.7 4.7 1.9-1.7.8-3.2 1.8-4.6 3.1 3.6-2.4 8.4-2 11.5 1-.3-1.2-.9-2.3-1.7-3.2 1.9-1.3 4.2-1.9 6.5-1.6-1.8-.6-3.7-.8-5.6-.7.8-.6 1.6-1.2 2.2-2-1.6.9-3 1.1-4.8 1.1-.1 0-.1-.4-.1-.6"/><g fill="#D74022"><path d="M97.9 26.4v.4h-3.5v-.4c0-.2.1-.3.4-.3h.9v-7.6H94.9h-.1c-.2 0-.4-.1-.4-.3v-.4h2.2v8.4H97.5c.3-.1.4 0 .4.2zm-2.4-11.5c0-.1-.1-.2-.1-.3 0-.1 0-.2.1-.3 0-.1.1-.2.2-.3.1-.1.2-.1.3-.2.1 0 .2-.1.3-.1s.2 0 .3.1c.1 0 .2.1.3.2.1.1.1.2.2.3 0 .1.1.2.1.3 0 .1 0 .2-.1.3 0 .1-.1.2-.2.3-.1.1-.2.1-.3.2-.1 0-.2.1-.3.1-.1 0-.2 0-.3-.1-.1 0-.2-.1-.3-.2-.1-.1-.2-.2-.2-.3zM105.9 17.4c1 0 1.8.3 2.3 1 .5.6.8 1.5.8 2.5v4.6c.6.1.9.2 1 .2.2 0 .3.1.3.3v.8h-2.9v-5.9c0-1.5-.6-2.2-1.9-2.2-.9 0-1.7.4-2.5 1.3v5.5h.2c.5.1.7.1.8.2.2 0 .3.1.3.3v.8H100V26c0-.2.1-.3.3-.3l1-.2V14.7c-.7-.1-1.1-.2-1.2-.2-.2 0-.3-.1-.3-.3v-.8h3.1v5.4c.9-.9 1.9-1.4 3-1.4zM119.9 25.6c.2 0 .3.2.3.3v.8h-1.9c-.2 0-.3 0-.4-.1-.1 0-.2-.1-.2-.3l-.2-.9c-.2.2-.5.4-.7.6-.2.2-.5.3-.7.4-.3.1-.5.2-.8.3-.3.1-.6.1-1 .1s-.7-.1-1-.2c-.3-.1-.6-.3-.8-.5s-.4-.5-.5-.8c-.1-.3-.2-.7-.2-1.1 0-.4.1-.7.3-1.1.2-.3.5-.6 1-.9.4-.3 1-.5 1.8-.6.7-.2 1.6-.2 2.7-.2v-.7c0-.7-.2-1.3-.5-1.6-.3-.4-.8-.6-1.4-.6-.4 0-.7.1-1 .2-.3.1-.5.2-.7.3-.2.1-.4.2-.5.3-.1.1-.3.1-.4.1-.1 0-.2 0-.3-.1l-.2-.2-.3-.5c.5-.5 1.1-.9 1.7-1.1.6-.2 1.3-.4 2-.4.5 0 1 .1 1.4.3.4.2.7.4 1 .7.3.3.5.7.6 1.1.1.4.2.9.2 1.4v4.6c.1.3.6.4.7.4zm-2.5-3c-.7 0-1.4 0-1.9.1s-.9.2-1.3.4c-.3.2-.6.3-.7.5-.1.2-.2.4-.2.7 0 .2 0 .5.1.6.1.2.2.3.3.4.1.1.3.2.5.2.2.1.4.1.6.1.3 0 .5 0 .8-.1.2-.1.5-.1.7-.2.2-.1.4-.2.6-.4.2-.2.4-.3.6-.5l-.1-1.8zM123 26.3c-.4-.4-.6-1-.6-1.8v-5.7h-1.1c-.1 0-.2 0-.2-.1-.1-.1-.1-.1-.1-.3v-.6l1.5-.2.4-2.9c0-.1 0-.2.1-.2.1-.1.1-.1.2-.1h.8v3.2h2.6v1.2H124v5.6c0 .4.1.7.3.9.2.2.4.3.7.3.2 0 .3 0 .4-.1.1 0 .2-.1.3-.2.1-.1.2-.1.2-.2.1 0 .1-.1.2-.1s.2.1.2.2l.5.8c-.3.3-.6.5-1 .6-.4.1-.8.2-1.2.2-.7.2-1.2 0-1.6-.5zM132.2 17.4c.6 0 1.1.1 1.5.3.5.2.9.4 1.2.8.3.3.6.8.8 1.3.2.5.3 1.1.3 1.8 0 .3 0 .4-.1.5-.1.1-.2.1-.3.1h-6.2c0 .6.1 1.1.2 1.5.1.4.3.8.6 1.1.3.3.6.5.9.7.4.1.7.2 1.2.2.4 0 .8 0 1.1-.1s.5-.2.8-.3c.2-.1.4-.2.5-.3.1-.1.3-.1.4-.1.1 0 .2.1.3.2l.5.6c-.2.2-.4.5-.7.6-.3.2-.6.3-.9.4-.3.1-.6.2-1 .3-.3.1-.7.1-1 .1-.6 0-1.2-.1-1.8-.3-.5-.2-1-.5-1.4-1-.4-.4-.7-.9-.9-1.6-.2-.6-.3-1.3-.3-2.1 0-.6.1-1.3.3-1.8.2-.6.5-1 .9-1.5.4-.4.8-.7 1.4-1 .4-.3 1-.4 1.7-.4zm0 1.2c-.8 0-1.4.2-1.9.7s-.7 1.1-.8 1.9h5c0-.4-.1-.7-.2-1-.1-.3-.3-.6-.5-.8-.2-.2-.4-.4-.7-.5-.2-.2-.5-.3-.9-.3zM139.2 26.3c-.4-.5-.7-1.1-.7-1.9v-5.2h-.9c-.1 0-.2 0-.3-.1-.1-.1-.1-.2-.1-.4v-.9l1.5-.2.5-2.6c0-.1.1-.2.2-.3.1-.1.2-.1.3-.1h1.2v3h2.5v1.6h-2.5v5.1c0 .3.1.5.2.7.1.2.3.2.6.2.1 0 .3 0 .4-.1.1 0 .2-.1.2-.1.1 0 .1-.1.2-.1s.1-.1.2-.1.1 0 .2.1c0 0 .1.1.1.2l.7 1.1c-.3.3-.7.5-1.1.6-.4.1-.9.2-1.3.2-1.1 0-1.7-.3-2.1-.7zM150.8 17.6c.6.2 1.1.5 1.5 1 .4.4.7.9.9 1.5s.3 1.3.3 2-.1 1.4-.3 2c-.2.6-.5 1.1-.9 1.5s-.9.7-1.5 1c-.6.2-1.2.3-1.9.3s-1.3-.1-1.9-.3c-.6-.2-1.1-.5-1.5-1-.4-.4-.7-.9-.9-1.5-.2-.6-.3-1.3-.3-2s.1-1.4.3-2c.2-.6.5-1.1.9-1.5.4-.4.9-.7 1.5-1 .6-.2 1.2-.3 1.9-.3s1.3.1 1.9.3zm-.2 6.8c.4-.5.6-1.3.6-2.3 0-1-.2-1.8-.6-2.3-.4-.5-1-.8-1.7-.8-.8 0-1.4.3-1.8.8-.4.5-.6 1.3-.6 2.3 0 1 .2 1.8.6 2.3.4.5 1 .8 1.8.8s1.3-.3 1.7-.8zM170.5 25.7v1.1H166.8v-6c0-.6-.1-1-.4-1.3-.3-.3-.6-.5-1.2-.5-.2 0-.4 0-.6.1-.2.1-.4.2-.5.3-.1.1-.3.3-.4.6-.1.2-.1.5-.1.8V25c.2 0 .4.1.5.1h.4c.3.1.5.3.5.6v1.1H161.3v-6c0-.6-.1-1.1-.4-1.4-.3-.3-.6-.4-1.1-.4-.3 0-.6.1-.9.2-.3.2-.5.4-.8.7V25c.2 0 .4.1.5.1h.4c.3.1.5.3.5.6v1.1h-5.1v-1.1c0-.3.2-.5.5-.6h.4c.1 0 .3-.1.5-.1v-5.8c-.2 0-.4-.1-.5-.1h-.4c-.3-.1-.5-.3-.5-.6v-1.1h2.8c.3 0 .5.1.6.4l.1.7c.2-.2.3-.4.5-.5s.4-.3.6-.4c.2-.1.4-.2.7-.3.2-.1.5-.1.8-.1.6 0 1.1.2 1.5.5.4.3.7.7.9 1.3.1-.3.3-.6.5-.8.2-.2.5-.4.7-.5.3-.1.5-.2.8-.3.3-.1.6-.1.9-.1.5 0 1 .1 1.4.2.4.2.7.4 1 .7.3.3.5.7.6 1.1.1.4.2.9.2 1.5V25c.2 0 .4.1.5.1h.4c.4.1.6.3.6.6zM180.6 25.7v1.1h-2.1c-.2 0-.4 0-.5-.1-.1-.1-.2-.2-.3-.4l-.2-.7c-.2.2-.5.4-.7.6-.2.2-.5.3-.7.4-.2.1-.5.2-.8.2-.3.1-.6.1-.9.1-.4 0-.8-.1-1.1-.2-.3-.1-.6-.3-.9-.5-.2-.2-.4-.5-.6-.8-.1-.3-.2-.7-.2-1.1 0-.4.1-.7.3-1 .2-.3.5-.7.9-.9.4-.3 1-.5 1.7-.7.7-.2 1.6-.3 2.7-.3v-.6c0-.6-.1-1.1-.4-1.4-.3-.3-.7-.5-1.2-.5-.4 0-.7 0-.9.1-.2.1-.5.2-.6.3-.2.1-.3.2-.5.3-.2.1-.3.1-.5.1s-.3 0-.4-.1l-.3-.3-.4-.7c1.1-1 2.4-1.5 3.9-1.5.5 0 1 .1 1.5.3.4.2.8.4 1.1.7.3.3.5.7.7 1.1.2.4.2.9.2 1.5V25c.2 0 .4.1.5.1h.2c.4.1.5.3.5.6zm-3.3-2.9c-.7 0-1.2 0-1.6.1-.4.1-.8.2-1.1.3-.3.1-.5.3-.6.5-.1.2-.2.4-.2.6 0 .4.1.7.4.9.2.2.5.3.9.3.2 0 .4 0 .6-.1.2 0 .4-.1.6-.2.2-.1.3-.2.5-.3.2-.1.3-.3.5-.4v-1.7zM183.3 26.3c-.4-.5-.7-1.1-.7-1.9v-5.2h-.9c-.1 0-.2 0-.3-.1-.1-.1-.1-.2-.1-.4v-.9l1.5-.2.5-2.6c0-.1.1-.2.2-.3.1-.1.2-.1.3-.1h1.2v3h2.5v1.6H185v5.1c0 .3.1.5.2.7.1.2.3.2.6.2.1 0 .3 0 .4-.1s.2-.1.2-.1c.1 0 .1-.1.2-.1s.1-.1.2-.1.1 0 .2.1c0 0 .1.1.1.2l.7 1.1c-.3.3-.7.5-1.1.6-.4.1-.9.2-1.3.2-1.1 0-1.7-.3-2.1-.7zM194.9 17.6c.6.2 1.1.5 1.5 1 .4.4.7.9.9 1.5s.3 1.3.3 2-.1 1.4-.3 2c-.2.6-.5 1.1-.9 1.5s-.9.7-1.5 1c-.6.2-1.2.3-1.9.3s-1.3-.1-1.9-.3c-.6-.2-1.1-.5-1.5-1-.4-.4-.7-.9-.9-1.5-.2-.6-.3-1.3-.3-2s.1-1.4.3-2c.2-.6.5-1.1.9-1.5.4-.4.9-.7 1.5-1 .6-.2 1.2-.3 1.9-.3s1.3.1 1.9.3zm-.2 6.8c.4-.5.6-1.3.6-2.3 0-1-.2-1.8-.6-2.3-.4-.5-1-.8-1.7-.8-.8 0-1.4.3-1.8.8-.4.5-.6 1.3-.6 2.3 0 1 .2 1.8.6 2.3.4.5 1 .8 1.8.8s1.3-.3 1.7-.8zM205 17.6c.5.2.9.5 1.3.8.4.4.6.8.8 1.3.2.5.3 1.1.3 1.8v.4c0 .1 0 .2-.1.3s-.1.1-.2.1H201c.1 1 .3 1.7.8 2.1.5.5 1 .7 1.8.7.4 0 .7 0 .9-.1.3-.1.5-.2.7-.3s.4-.2.5-.3c.1-.1.3-.1.4-.1.1 0 .2 0 .2.1.1 0 .1.1.2.2l.7.8c-.2.3-.5.5-.8.7s-.6.4-1 .5c-.3.1-.7.2-1 .3-.4 0-.7.1-1 .1-.7 0-1.3-.1-1.8-.3-.6-.2-1-.5-1.5-1-.4-.4-.7-.9-1-1.6-.2-.6-.4-1.3-.4-2.2 0-.6.1-1.2.3-1.8.2-.6.5-1.1.9-1.5.4-.4.9-.7 1.4-1 .6-.2 1.2-.4 1.9-.4.8.1 1.3.2 1.8.4zm-3.1 1.9c-.4.4-.6.9-.7 1.6h4.2c0-.3 0-.6-.1-.8-.1-.3-.2-.5-.4-.7-.2-.2-.4-.3-.6-.5-.2-.1-.5-.2-.9-.2-.6 0-1.2.2-1.5.6zM215.6 23.8c0 .5-.1.9-.2 1.2-.2.4-.4.7-.7 1-.3.3-.7.5-1.2.6-.5.2-1 .2-1.6.2-1.2 0-2.3-.2-3-.5v-2.6h1.1c.2 0 .4.1.4.3 0 .1 0 .3.1 1.1.5.2 1.1.2 1.5.2.3 0 .5 0 .7-.1.2-.1.4-.1.5-.3.1-.1.2-.2.3-.4.1-.1.1-.3.1-.4 0-.2-.1-.4-.2-.5-.1-.1-.3-.3-.5-.4-.2-.1-.5-.2-.7-.3-.3-.1-.6-.2-.8-.3-.3-.1-.6-.2-.8-.3-.3-.1-.5-.3-.7-.5-.2-.2-.4-.4-.5-.7-.1-.3-.2-.6-.2-1.1 0-.4.1-.7.2-1.1.2-.3.4-.6.7-.9.3-.3.7-.5 1.1-.6.4-.2 1-.2 1.5-.2.9 0 1.4.1 2.7.5v2.7H214c-.2 0-.4-.1-.4-.3 0-.1 0-.3-.1-1-.2-.1-.7-.1-1.1-.1-.4 0-.8.1-1.1.3-.3.2-.4.4-.4.7 0 .2.1.4.2.5.1.1.3.3.5.4.2.1.5.2.7.3.3.1.6.2.8.3.3.1.6.2.8.3.3.1.5.3.7.5.2.2.4.4.5.7.4.1.5.5.5.8z"/></g></svg>