<svg id="Layer_1" data-name="Layer 1" xmlns="http://www.w3.org/2000/svg" viewBox="0 0 82 207"><defs><style>.cls-1{fill:#3db3ce;}.cls-15,.cls-2,.cls-5,.cls-6,.cls-7,.cls-8{fill:none;}.cls-10,.cls-11,.cls-12,.cls-13,.cls-14,.cls-15,.cls-2,.cls-5,.cls-7{stroke:#294d67;}.cls-10,.cls-11,.cls-12,.cls-13,.cls-15,.cls-2,.cls-7,.cls-8{stroke-linecap:round;}.cls-10,.cls-11,.cls-12,.cls-13,.cls-15,.cls-2,.cls-5,.cls-6,.cls-7,.cls-8{stroke-linejoin:round;}.cls-10,.cls-11,.cls-13,.cls-14,.cls-2{stroke-width:4px;}.cls-11,.cls-3{fill:#7b99a3;}.cls-4{fill:#294d67;}.cls-5,.cls-7{stroke-width:16px;}.cls-6{stroke:#7b99a3;stroke-linecap:square;}.cls-6,.cls-8{stroke-width:8px;}.cls-8{stroke:#fde1c0;}.cls-10,.cls-12,.cls-9{fill:#ecf3f7;}.cls-12{stroke-width:2px;}.cls-13,.cls-14{fill:#fde1c0;}.cls-14{stroke-miterlimit:10;}.cls-15{stroke-width:3px;}</style></defs><title>petr-tichy</title><polygon class="cls-1" points="22 96 22 204 32 204 32 158 50 158 50 204 60 204 60 96 22 96"/><polygon class="cls-2" points="22 96 22 204 32 204 32 158 50 158 50 204 60 204 60 96 22 96"/><rect class="cls-3" x="22" y="96" width="38" height="52"/><path class="cls-4" d="M325,480H287a2,2,0,0,1-2-2V426a2,2,0,0,1,2-2h38a2,2,0,0,1,2,2v52A2,2,0,0,1,325,480Zm-36-4h34V428H289v48Z" transform="translate(-265 -330)"/><path class="cls-5" d="M278,457.05V442.5A10.5,10.5,0,0,1,288.5,432h0" transform="translate(-265 -330)"/><path class="cls-6" d="M278,457.05V442.5A10.5,10.5,0,0,1,288.5,432h0" transform="translate(-265 -330)"/><path class="cls-5" d="M334,456.05V442.5A10.5,10.5,0,0,0,323.5,432h0" transform="translate(-265 -330)"/><path class="cls-6" d="M334,456.05V442.5A10.5,10.5,0,0,0,323.5,432h0" transform="translate(-265 -330)"/><line class="cls-7" x1="13" y1="163" x2="13" y2="128"/><line class="cls-8" x1="13" y1="163" x2="13" y2="128"/><line class="cls-7" x1="69" y1="163" x2="69" y2="127"/><line class="cls-8" x1="69" y1="163" x2="69" y2="127"/><rect class="cls-9" x="14" y="193" width="18" height="12"/><path class="cls-4" d="M297,537H279a2,2,0,0,1-2-2V523a2,2,0,0,1,2-2h18a2,2,0,0,1,2,2v12A2,2,0,0,1,297,537Zm-16-4h14v-8H281v8Z" transform="translate(-265 -330)"/><path class="cls-10" d="M279,523a11.77,11.77,0,0,0-12,12h24A11.77,11.77,0,0,0,279,523Z" transform="translate(-265 -330)"/><rect class="cls-9" x="315" y="523" width="18" height="12" transform="translate(383 728) rotate(180)"/><path class="cls-4" d="M333,537H315a2,2,0,0,1-2-2V523a2,2,0,0,1,2-2h18a2,2,0,0,1,2,2v12A2,2,0,0,1,333,537Zm-16-4h14v-8H317v8Z" transform="translate(-265 -330)"/><path class="cls-10" d="M333,523a11.55,11.55,0,0,1,12,12H321A11.55,11.55,0,0,1,333,523Z" transform="translate(-265 -330)"/><polyline class="cls-11" points="41 148 41 107 52 96 52 113 41 113"/><polyline class="cls-2" points="41 158 41 107 30 96 30 113 41 113"/><circle class="cls-12" cx="41" cy="120" r="3"/><circle class="cls-12" cx="41" cy="128" r="3"/><circle class="cls-12" cx="41" cy="137" r="3"/><path class="cls-13" d="M37,85h8a0,0,0,0,1,0,0V99a4,4,0,0,1-4,4h0a4,4,0,0,1-4-4V85A0,0,0,0,1,37,85Z"/><path class="cls-14" d="M310.41,420h-8.73a10,10,0,0,1-6.48-2.38l-12.27-10.43A14,14,0,0,1,278,396.53V360a28,28,0,0,1,28-28h0a28,28,0,0,1,28,28v36.9a14,14,0,0,1-5.09,10.8l-12.14,10A10,10,0,0,1,310.41,420Z" transform="translate(-265 -330)"/><circle class="cls-4" cx="28" cy="45" r="3"/><circle class="cls-4" cx="55" cy="45" r="3"/><path class="cls-2" d="M302,377v8a4,4,0,0,0,4,4h0a4,4,0,0,0,4-4v-8" transform="translate(-265 -330)"/><path class="cls-15" d="M294.62,398.05a31.64,31.64,0,0,0,22.75,0" transform="translate(-265 -330)"/><path class="cls-13" d="M271,375h0a7,7,0,0,1,7,7v2a7,7,0,0,1-7,7h0a0,0,0,0,1,0,0V375a0,0,0,0,1,0,0Z" transform="translate(284 436) rotate(180)"/><path class="cls-13" d="M69,45h0a7,7,0,0,1,7,7v2a7,7,0,0,1-7,7h0a0,0,0,0,1,0,0V45A0,0,0,0,1,69,45Z"/><path class="cls-2" d="M18,39H37a0,0,0,0,1,0,0V51a0,0,0,0,1,0,0H21a3,3,0,0,1-3-3V39A0,0,0,0,1,18,39Z"/><path class="cls-2" d="M313,369h16a0,0,0,0,1,0,0v12a0,0,0,0,1,0,0H310a0,0,0,0,1,0,0v-9A3,3,0,0,1,313,369Z" transform="translate(374 420) rotate(180)"/><line class="cls-2" x1="72" y1="39" x2="10" y2="39"/></svg>